<?xml version="1.0" encoding="utf-8"?>
<!-- Generator: Adobe Illustrator 20.1.0, SVG Export Plug-In . SVG Version: 6.00 Build 0)  -->
<svg version="1.1" id="Layer_1" xmlns="http://www.w3.org/2000/svg" xmlns:xlink="http://www.w3.org/1999/xlink" x="0px" y="0px"
	 viewBox="0 0 64 64" style="enable-background:new 0 0 64 64;" xml:space="preserve">
<style type="text/css">
	.st0{fill:#444444;}
	.st1{opacity:0.4;fill:#444444;enable-background:new    ;}
	.st2{opacity:0.7;fill:#444444;enable-background:new    ;}
	.st3{fill:#555555;}
</style>
<path id="Rounded_Rectangle_1_copy_2" class="st0" d="M53.6,57.7c0,1-0.8,1.8-1.7,1.8H31.4H12.2c-1,0-1.7-0.8-1.7-1.8L7.6,33.1h48.8
	L53.6,57.7z"/>
<path class="st1" d="M7.6,33.2l6-10.1h36.8l6,10.1H7.6z"/>
<path id="Shape_1_copy" class="st2" d="M50.4,23.1l6,10h-6V23.1z"/>
<path id="Shape_1_copy_2" class="st2" d="M13.6,23.1l-6,10.1h6V23.1z"/>
<path class="st2" d="M13.7,23.1l-7-6L0,23.2l7.6,10L13.7,23.1z"/>
<path id="Shape_6_copy" class="st2" d="M50.3,23.1l7-6l6.7,6.2l-7.6,10L50.3,23.1z"/>
<path class="st0" d="M44.8,33.4"/>
<g id="Layer_2">
	<path class="st0" d="M45.6,16.8h-2.5c-0.2-0.9-0.6-1.7-1-2.5l1.8-1.8c0.8-0.8,0.8-2.1,0-2.9l-1.5-1.5c-0.8-0.8-2.1-0.8-2.9,0
		l-1.8,1.8c-0.7-0.4-1.5-0.7-2.3-0.9V6.4c0-1.1-0.9-2.1-2.1-2.1h-2.1c-1.1,0-2.1,0.9-2.1,2.1V9c-0.8,0.2-1.7,0.6-2.4,1l-1.9-1.9
		c0,0,0,0,0,0c-0.8-0.8-2.1-0.8-2.9,0l-1.5,1.5c-0.8,0.8-0.8,2.1,0,2.9l1.9,1.9c-0.4,0.8-0.8,1.6-1,2.4h-2.5c-1.1,0-2.1,0.9-2.1,2.1
		v2.1c0,1.1,0.9,2.1,2.1,2.1h2.5c0.2,0.8,0.5,1.6,0.9,2.3l-1.8,1.8c0,0,0,0,0,0c-0.8,0.8-0.8,2.1,0,2.9l1.5,1.5c0,0,0,0,0,0
		c0.8,0.8,2.1,0.8,2.9,0l1.8-1.8c0.8,0.4,1.6,0.8,2.5,1v2.5c0,1.1,0.9,2.1,2.1,2.1h2.1c1.1,0,2.1-0.9,2.1-2.1v-2.5
		c0.8-0.2,1.7-0.6,2.4-1l1.8,1.8c0.8,0.8,2.1,0.8,2.9,0l1.5-1.5c0.8-0.8,0.8-2.1,0-2.9l-1.8-1.8c0.4-0.8,0.8-1.6,1-2.4h2.5
		c0,0,0,0,0,0c1.1,0,2.1-0.9,2.1-2.1v-2.1C47.7,17.7,46.8,16.8,45.6,16.8z M32.2,26.1c-3.4,0-6.2-2.8-6.2-6.2s2.8-6.2,6.2-6.2
		s6.2,2.8,6.2,6.2S35.6,26.1,32.2,26.1z"/>
	<ellipse class="st0" cx="32.2" cy="19.9" rx="3.1" ry="3.1"/>
</g>
<path class="st3" d="M7.5,33.1h49l-7.4,10.6H15L7.5,33.1z"/>
</svg>
